<?xml version="1.0" encoding="iso-8859-1"?><!-- Generator: Adobe Illustrator 19.2.1, SVG Export Plug-In . SVG Version: 6.00 Build 0)  --><svg xmlns="http://www.w3.org/2000/svg" xmlns:xlink="http://www.w3.org/1999/xlink" version="1.1" id="Layer_1" x="0px" y="0px" viewBox="0 0 80 80" style="enable-background:new 0 0 80 80;" xml:space="preserve" width="80" height="80">
<line style="fill:none;stroke:#4E7AB5;stroke-width:2;stroke-miterlimit:10;" x1="41" y1="79" x2="41" y2="1"/>
<polyline style="fill:none;stroke:#4E7AB5;stroke-width:2;stroke-miterlimit:10;" points="49.171,7.273 41,15.444 32.829,7.273 "/>
<polyline style="fill:none;stroke:#4E7AB5;stroke-width:2;stroke-miterlimit:10;" points="32.829,72.727 41,64.556 49.171,72.727   "/>
<line style="fill:none;stroke:#4E7AB5;stroke-width:2;stroke-miterlimit:10;" x1="74.775" y1="59.5" x2="7.225" y2="20.5"/>
<polyline style="fill:none;stroke:#4E7AB5;stroke-width:2;stroke-miterlimit:10;" points="16.743,16.56 19.734,27.722 8.572,30.713   "/>
<polyline style="fill:none;stroke:#4E7AB5;stroke-width:2;stroke-miterlimit:10;" points="65.257,63.44 62.266,52.278   73.428,49.287 "/>
<line style="fill:none;stroke:#4E7AB5;stroke-width:2;stroke-miterlimit:10;" x1="74.775" y1="20.5" x2="7.225" y2="59.5"/>
<line style="fill:none;stroke:#4E7AB5;stroke-width:2;stroke-miterlimit:10;" x1="15" y1="40" x2="67" y2="40"/>
<polyline style="fill:none;stroke:#4E7AB5;stroke-width:2;stroke-miterlimit:10;" points="8.572,49.287 19.734,52.278 16.743,63.44   "/>
<polyline style="fill:none;stroke:#4E7AB5;stroke-width:2;stroke-miterlimit:10;" points="73.428,30.713 62.266,27.722   65.257,16.56 "/>
<polyline style="fill:none;stroke:#4E7AB5;stroke-width:2;stroke-miterlimit:10;" points="62.451,45.034 57.417,40 62.451,34.966   "/>
<polyline style="fill:none;stroke:#4E7AB5;stroke-width:2;stroke-miterlimit:10;" points="19.549,34.966 24.583,40 19.549,45.034   "/>
<line style="fill:none;stroke:#4E7AB5;stroke-width:2;stroke-miterlimit:10;" x1="28" y1="62.517" x2="54" y2="17.483"/>
<polyline style="fill:none;stroke:#4E7AB5;stroke-width:2;stroke-miterlimit:10;" points="56.085,23.94 49.209,25.782   47.366,18.906 "/>
<polyline style="fill:none;stroke:#4E7AB5;stroke-width:2;stroke-miterlimit:10;" points="25.915,56.06 32.791,54.218   34.634,61.094 "/>
<line style="fill:none;stroke:#4E7AB5;stroke-width:2;stroke-miterlimit:10;" x1="54" y1="62.517" x2="28" y2="17.483"/>
<polyline style="fill:none;stroke:#4E7AB5;stroke-width:2;stroke-miterlimit:10;" points="34.634,18.906 32.791,25.782   25.915,23.94 "/>
<polyline style="fill:none;stroke:#4E7AB5;stroke-width:2;stroke-miterlimit:10;" points="47.366,61.094 49.209,54.218   56.085,56.06 "/>
</svg>